<svg width="15" height="15" viewBox="0 0 15 15" fill="none" xmlns="http://www.w3.org/2000/svg">
<path d="M14.1229 6.86249H7.6275V8.79624H12.2387C12.005 11.495 9.75958 12.6496 7.63458 12.6496C4.92166 12.6496 2.54166 10.5104 2.54166 7.49999C2.54166 4.59582 4.80833 2.35041 7.64166 2.35041C9.83041 2.35041 11.1125 3.74582 11.1125 3.74582L12.4583 2.34332C12.4583 2.34332 10.73 0.416656 7.57083 0.416656C3.5475 0.416656 0.437912 3.81666 0.437912 7.49999C0.437912 11.0771 3.36333 14.5833 7.67708 14.5833C11.4667 14.5833 14.2292 11.9837 14.2292 8.14457C14.2292 7.32999 14.1229 6.86249 14.1229 6.86249Z" fill="black"/>
</svg>
